# xmcd
#
# Track frame offsets: 
#        150
#        19527
#        36572
#        53905
#        75152
#        88185
#        111195
#        125860
#        147459
#        167342
#        187497
#        205128
#        222523
#        238395
#
# Disc length: 3395 seconds
#
# Revision: 0
# Processed by: cddbd v1.5.1PL0 Copyright (c) Steve Scherf et al.
# Submitted via: ExactAudioCopy v0.95b3
#
DISCID=d40d410e
DTITLE=Artie 'Blues Boy' White - American Roots: Blues
DYEAR=2002
DGENRE=Blues
TTITLE0=I Dig My Gig
TTITLE1=One Woman Man
TTITLE2=Jodie
TTITLE3=Turn About Is Fair Play
TTITLE4=Nose To The Grind Stone
TTITLE5=Clock Don't Tick
TTITLE6=Nite Before Payday
TTITLE7=I'm Mean
TTITLE8=Nobody Wants You When You Are Old And Gray
TTITLE9=Hattie Mae
TTITLE10=Doctor, Doctor
TTITLE11=Hit And Run
TTITLE12=You Left Me Standing
TTITLE13=Bad Luck Child
EXTD=
EXTT0=
EXTT1=
EXTT2=
EXTT3=
EXTT4=
EXTT5=
EXTT6=
EXTT7=
EXTT8=
EXTT9=
EXTT10=
EXTT11=
EXTT12=
EXTT13=
PLAYORDER=
